<svg xmlns="http://www.w3.org/2000/svg" viewBox="0 0 68.9 68.9"><defs><style>.cls-1{fill:#fff;stroke:#000;stroke-linecap:round;stroke-miterlimit:10;stroke-width:2px;}.cls-2{fill:none;}</style></defs><title>Ресурс 3</title><g id="Слой_2" data-name="Слой 2"><g id="Слой_1-2" data-name="Слой 1"><path class="cls-1" d="M57.58,41v0a4.43,4.43,0,0,1-4.41,4.4h-36a5.84,5.84,0,0,1-5.88-5.71v-.07a9.47,9.47,0,0,1,9.47-9.48,9.35,9.35,0,0,1,3.52.68h0A12.61,12.61,0,0,1,45.68,28.2h0a4.62,4.62,0,0,1,3,0,4.39,4.39,0,0,1,3,4.79v0h0A8.4,8.4,0,0,1,57.58,41Z"/><rect class="cls-2" width="68.9" height="68.9"/></g></g></svg>