<svg xmlns="http://www.w3.org/2000/svg" viewBox="0 0 68.9 68.9"><defs><style>.cls-1{fill:#fff;stroke:#000;stroke-linecap:round;stroke-miterlimit:10;stroke-width:2px;}.cls-2{fill:none;}</style></defs><title>Ресурс 2</title><g id="Слой_2" data-name="Слой 2"><g id="Слой_1-2" data-name="Слой 1"><path class="cls-1" d="M57.61,42s0,.07,0,.11A4.18,4.18,0,0,1,53.49,46H17.16a6,6,0,0,1-5.89-6v-.07A9.73,9.73,0,0,1,20.77,30a9,9,0,0,1,3.53.71h0a12.61,12.61,0,0,1,11.52-7.78A12.75,12.75,0,0,1,48,32.61h0a6.24,6.24,0,0,1,1-.08A8.71,8.71,0,0,1,57.61,42Z"/><rect class="cls-2" width="68.9" height="68.9"/></g></g></svg>