<svg width="30" height="30" viewBox="0 0 30 30" fill="none" xmlns="http://www.w3.org/2000/svg">
<path d="M15 2.69923C19.0103 2.69923 19.473 2.71851 21.054 2.79563C22.5193 2.85347 23.3098 3.10411 23.8303 3.3162C24.5244 3.58612 25.0257 3.91388 25.5463 4.43445C26.0668 4.95501 26.3946 5.4563 26.6645 6.15039C26.8766 6.67095 27.108 7.48072 27.1851 8.92673C27.2622 10.5077 27.2815 10.9897 27.2815 14.9807C27.2815 18.991 27.2622 19.4537 27.1851 21.0347C27.1272 22.5 26.8766 23.2905 26.6645 23.8111C26.3946 24.5051 26.0668 25.0064 25.5463 25.527C25.0257 26.0476 24.5244 26.3753 23.8303 26.6452C23.3098 26.8573 22.5 27.0887 21.054 27.1658C19.473 27.2429 19.0103 27.2622 15 27.2622C10.9897 27.2622 10.527 27.2429 8.94601 27.1658C7.48072 27.108 6.69023 26.8573 6.16967 26.6452C5.47558 26.3753 4.97429 26.0476 4.45373 25.527C3.93316 25.0064 3.6054 24.5051 3.33548 23.8111C3.12339 23.2905 2.89203 22.4807 2.81491 21.0347C2.73779 19.4537 2.71851 18.9717 2.71851 14.9807C2.71851 10.9704 2.73779 10.5077 2.81491 8.92673C2.87275 7.46144 3.12339 6.67095 3.33548 6.15039C3.6054 5.4563 3.91388 4.95501 4.45373 4.43445C4.97429 3.91388 5.47558 3.58612 6.16967 3.3162C6.69023 3.10411 7.5 2.87275 8.94601 2.79563C10.527 2.71851 11.009 2.69923 15 2.69923ZM15 0C10.9319 0 10.4113 0.0192797 8.83033 0.0964005C7.23008 0.173521 6.15038 0.424164 5.18637 0.790488C4.20308 1.17609 3.37404 1.67738 2.52571 2.52571C1.69666 3.35476 1.17609 4.20308 0.790489 5.18638C0.424165 6.13111 0.173522 7.23008 0.0964014 8.83033C0.0192806 10.4306 0 10.9319 0 15C0 19.0681 0.0192806 19.5887 0.0964014 21.1697C0.173522 22.7699 0.424165 23.8496 0.790489 24.8136C1.17609 25.7969 1.67738 26.626 2.52571 27.4743C3.35476 28.3033 4.20308 28.8239 5.18637 29.2095C6.1311 29.5758 7.23008 29.8265 8.83033 29.9036C10.4306 29.9807 10.9319 30 15 30C19.0681 30 19.5887 29.9807 21.1697 29.9036C22.7699 29.8265 23.8496 29.5758 24.8136 29.2095C25.7969 28.8239 26.626 28.3226 27.4743 27.4743C28.3033 26.6452 28.8239 25.7969 29.2095 24.8136C29.5758 23.8689 29.8265 22.7699 29.9036 21.1697C29.9807 19.5694 30 19.0681 30 15C30 10.9319 29.9807 10.4113 29.9036 8.83033C29.8265 7.23008 29.5758 6.15039 29.2095 5.18638C28.8239 4.20308 28.3226 3.37404 27.4743 2.52571C26.6452 1.69666 25.7969 1.17609 24.8136 0.790488C23.8689 0.424164 22.7699 0.173521 21.1697 0.0964005C19.5887 0.0192797 19.0681 0 15 0Z" fill="#C5DDE2"/>
<path d="M15 7.5C10.8647 7.5 7.5 10.8647 7.5 15C7.5 19.1353 10.8647 22.5 15 22.5C19.1353 22.5 22.5 19.1353 22.5 15C22.5 10.8647 19.1541 7.5 15 7.5ZM15 19.8684C12.312 19.8684 10.1316 17.688 10.1316 15C10.1316 12.312 12.312 10.1316 15 10.1316C17.688 10.1316 19.8684 12.312 19.8684 15C19.8684 17.688 17.688 19.8684 15 19.8684Z" fill="#C5DDE2"/>
<path d="M25 8.125C25 9.15323 24.1532 10 23.125 10C22.0766 10 21.25 9.15323 21.25 8.125C21.25 7.09677 22.0968 6.25 23.125 6.25C24.1734 6.25 25 7.09677 25 8.125Z" fill="#C5DDE2"/>
</svg>
